<?xml version="1.0" standalone="no"?>
<!DOCTYPE svg PUBLIC "-//W3C//DTD SVG 20010904//EN"
 "http://www.w3.org/TR/2001/REC-SVG-20010904/DTD/svg10.dtd">
<svg version="1.0" xmlns="http://www.w3.org/2000/svg"
 width="900.000000pt" height="900.000000pt" viewBox="0 0 900.000000 900.000000"
 preserveAspectRatio="xMidYMid meet">
<metadata>
Created by potrace 1.11, written by Peter Selinger 2001-2013
</metadata>
<g transform="translate(0.000000,900.000000) scale(0.100000,-0.100000)"
fill="#000000" stroke="none">
<path d="M0 5105 l0 -3895 36 0 c59 0 139 -83 126 -131 -2 -9 -15 -22 -28 -29
-28 -15 -30 -25 -8 -34 8 -3 12 -10 9 -16 -3 -5 1 -10 9 -10 9 0 16 -4 16 -10
0 -5 5 -10 11 -10 5 0 7 6 3 13 -4 6 2 4 14 -6 11 -11 18 -25 15 -33 -3 -8 1
-14 8 -14 12 0 12 -2 1 -9 -10 -6 -12 -23 -7 -67 11 -97 10 -137 -3 -142 -21
-7 -13 -30 13 -36 14 -4 25 -13 25 -22 0 -12 8 -14 38 -10 20 3 38 5 40 6 1 0
0 11 -4 25 -4 17 -2 25 7 25 7 0 10 3 6 6 -3 4 8 14 26 23 34 17 147 17 147 0
0 -5 11 -9 24 -9 14 0 31 -7 40 -15 8 -8 18 -15 23 -16 13 -1 64 -66 68 -88 2
-11 9 -30 15 -41 8 -15 10 -48 5 -99 -3 -42 -8 -129 -11 -195 -2 -65 -5 -121
-7 -125 -2 -3 -3 -27 -2 -53 0 -25 -3 -44 -6 -42 -4 2 -14 -7 -23 -21 l-16
-25 1832 0 1832 0 -22 20 c-12 11 -26 20 -31 20 -17 0 -20 32 -15 125 3 50 6
101 6 115 0 14 3 30 8 35 4 6 10 24 14 40 9 35 84 137 97 130 4 -3 13 4 20 17
6 12 20 31 30 42 11 11 19 28 19 39 0 16 3 17 14 8 11 -10 17 -7 30 11 9 12
16 30 16 39 0 9 7 22 15 29 8 7 15 17 15 23 0 5 11 20 24 32 13 12 29 32 35
44 7 12 23 26 37 31 13 5 24 16 24 25 0 8 7 15 15 15 8 0 15 7 15 15 0 8 5 15
11 15 19 0 49 44 36 53 -7 5 -3 7 11 4 25 -6 28 3 10 22 -11 10 -10 14 5 22
20 11 23 31 5 28 -27 -3 -37 2 -32 15 3 8 1 17 -5 21 -6 3 -11 15 -11 26 0 10
-7 19 -15 19 -14 0 -16 4 -19 37 -1 6 -10 20 -21 30 -20 19 -40 46 -52 73 -4
8 -9 17 -13 20 -3 3 -18 39 -34 80 -16 41 -35 80 -42 86 -8 6 -14 16 -14 23 0
6 -7 14 -15 17 -15 6 -22 26 -7 22 17 -6 11 15 -15 50 -15 20 -32 40 -37 43
-4 4 -3 10 3 14 8 4 4 15 -14 33 -19 19 -22 27 -13 33 9 6 9 9 -3 14 -11 4
-14 14 -11 31 3 15 0 24 -8 24 -20 0 -61 53 -56 73 2 9 -1 17 -8 17 -7 0 -12
8 -12 18 1 9 -3 18 -7 19 -24 7 -39 40 -44 93 -5 49 -3 61 11 66 14 5 16 25
16 130 0 122 0 125 24 136 21 9 23 13 11 24 -7 8 -18 14 -24 14 -16 0 -13 36
4 50 8 7 12 17 9 22 -4 5 -2 20 3 31 6 12 15 36 20 52 5 17 15 29 21 27 7 -1
12 10 12 26 0 15 9 35 20 45 11 9 20 24 20 32 0 8 4 15 8 15 11 0 32 46 32 70
0 10 6 21 12 23 10 4 9 8 -2 16 -12 8 -12 11 3 17 10 4 16 13 13 20 -3 8 1 14
9 14 8 0 15 7 15 15 0 9 6 12 15 9 9 -4 15 0 15 10 0 9 8 16 18 16 15 1 15 2
-2 15 -16 12 -16 15 -4 15 8 0 23 9 33 20 10 11 24 20 30 20 25 0 46 43 68
137 2 7 11 21 22 33 10 11 14 20 9 20 -5 0 2 7 14 16 12 8 22 24 22 34 0 10 8
23 17 29 15 8 15 11 3 25 -10 13 -10 20 -2 28 9 9 12 9 12 1 0 -6 9 -9 19 -6
23 6 17 30 -7 35 -21 5 -77 -17 -101 -40 -33 -31 -56 -47 -104 -71 -28 -14
-47 -31 -47 -41 0 -18 -28 -35 -75 -45 -16 -3 -35 -15 -42 -25 -8 -11 -20 -17
-28 -14 -8 4 -15 1 -15 -6 0 -14 -57 -70 -71 -70 -5 0 -9 -9 -9 -20 0 -12 -6
-20 -12 -19 -28 3 -38 -2 -38 -21 0 -15 -9 -22 -30 -27 -17 -3 -35 -14 -41
-24 -5 -11 -16 -19 -24 -19 -8 0 -15 -7 -15 -15 0 -8 -9 -15 -20 -15 -13 0
-20 -7 -20 -20 0 -12 -9 -30 -20 -42 -11 -12 -19 -29 -19 -37 1 -13 2 -12 6 1
2 10 11 18 19 18 8 0 14 6 14 13 0 6 5 4 11 -5 13 -24 1 -88 -17 -88 -10 0
-14 -13 -14 -40 0 -31 4 -40 18 -41 15 0 15 -1 -2 -8 -18 -7 -18 -8 5 -24 13
-9 30 -17 38 -17 11 0 12 -11 7 -55 -6 -54 -6 -55 19 -55 23 0 25 -4 25 -40 0
-28 -4 -40 -14 -40 -20 0 -27 -27 -10 -40 22 -19 18 -43 -6 -37 -16 4 -20 0
-20 -18 0 -15 -8 -26 -21 -30 -18 -6 -21 -13 -17 -49 4 -36 2 -44 -16 -52 -12
-5 -22 -19 -24 -31 -3 -19 -10 -23 -43 -23 -28 0 -39 -4 -39 -15 0 -8 -4 -15
-10 -15 -5 0 -10 11 -10 25 0 25 6 28 70 38 17 3 13 5 -12 6 -33 1 -38 4 -38
26 0 16 -4 23 -14 19 -14 -5 -26 34 -26 87 0 16 -4 29 -10 29 -5 0 -11 19 -12
43 l-1 42 -7 -45 c-4 -25 -8 -35 -8 -22 -2 16 -8 22 -25 22 -30 0 -40 10 -26
27 9 10 8 13 -1 13 -9 0 -10 3 -1 14 9 11 7 15 -9 19 -18 5 -20 0 -20 -48 0
-33 5 -55 13 -58 6 -3 -1 -6 -17 -6 -28 -1 -28 -2 -24 -51 4 -42 3 -48 -9 -39
-19 17 -30 2 -15 -21 7 -11 12 -27 12 -35 0 -21 -28 -19 -33 3 -3 9 -5 -2 -6
-25 l-1 -43 -40 0 c-29 0 -40 -4 -40 -15 0 -23 -77 -21 -83 3 -4 16 -5 16 -6
0 0 -10 -8 -18 -17 -18 -13 0 -15 7 -9 36 4 24 2 39 -5 44 -9 5 -10 29 -5 84
6 65 10 76 26 76 11 0 19 6 19 13 0 14 52 57 70 57 5 0 10 -16 10 -35 0 -19 4
-35 9 -35 5 0 18 -3 28 -6 11 -4 14 -3 6 3 -19 14 -20 171 -1 186 9 7 21 40
29 75 7 34 18 62 25 62 7 0 15 18 19 39 3 22 15 47 26 57 10 9 19 27 19 39 0
14 8 25 20 28 11 3 20 13 20 22 0 32 43 106 60 103 19 -3 60 36 60 60 1 42 51
70 64 35 5 -12 10 -13 17 -6 15 15 2 33 -24 33 -16 0 -18 3 -9 12 7 7 24 12
40 13 18 0 30 7 37 23 5 12 17 22 26 22 12 0 16 6 12 20 -4 15 0 20 16 20 35
0 61 19 61 44 0 16 7 26 21 29 11 3 23 14 25 25 3 10 22 24 42 32 46 16 64 29
56 42 -4 6 -1 14 6 18 15 9 6 40 -11 40 -8 0 -8 -4 1 -15 10 -13 9 -15 -9 -15
-11 0 -21 4 -21 8 0 10 -36 9 -46 -1 -13 -12 -122 -8 -130 5 -4 7 -9 23 -10
36 -2 17 1 22 12 18 10 -4 14 1 13 17 0 12 -3 16 -6 10 -10 -27 -23 -11 -23
27 0 32 4 40 19 40 22 0 47 76 27 84 -6 2 -2 5 9 5 15 1 16 4 7 13 -17 17 -15
28 4 28 10 0 14 6 10 15 -3 8 1 21 9 29 8 8 15 21 15 29 0 9 7 13 18 11 9 -2
23 0 31 5 12 8 12 12 -2 25 -8 9 -18 16 -21 16 -15 0 -46 -37 -47 -55 0 -11
-3 -15 -5 -8 -6 13 -34 6 -34 -9 0 -5 -19 -28 -42 -50 -24 -22 -42 -44 -40
-50 2 -6 -4 -8 -12 -5 -9 4 -15 2 -13 -2 1 -5 -10 -20 -25 -34 -15 -14 -24
-28 -20 -33 4 -4 2 -4 -5 0 -7 4 -21 -2 -32 -13 -11 -11 -23 -16 -27 -13 -4 4
-5 2 -1 -3 8 -14 -11 -36 -59 -66 -22 -15 -54 -40 -70 -55 -41 -39 -73 -64
-82 -64 -4 0 -19 -11 -34 -25 -15 -14 -33 -25 -41 -25 -8 0 -22 -9 -32 -20
-10 -11 -26 -20 -35 -20 -22 0 -54 -35 -45 -49 7 -12 -17 -41 -33 -41 -16 0
-43 50 -40 73 2 17 11 23 37 25 18 2 43 12 54 23 11 10 24 19 29 19 4 0 16 8
26 18 10 9 31 27 46 39 72 55 117 97 227 206 66 64 119 121 119 125 0 4 9 13
20 20 12 7 18 18 14 24 -5 7 -3 8 5 4 8 -5 14 0 18 13 3 11 8 19 12 17 3 -3
20 11 36 30 17 19 53 59 81 88 28 30 54 61 57 70 4 9 11 16 18 16 6 0 8 7 5
16 -3 8 -2 13 3 10 5 -3 14 1 20 8 10 11 8 17 -6 24 -10 6 -14 14 -9 19 5 4
11 2 13 -4 6 -16 23 -17 23 -2 0 7 10 21 23 32 l22 20 -22 -6 c-13 -3 -23 -1
-23 4 0 5 5 9 12 9 6 0 9 2 6 5 -9 9 -38 -6 -38 -20 0 -16 -23 -25 -65 -25
-24 0 -34 -5 -38 -20 -4 -15 -14 -20 -41 -20 -38 0 -44 8 -23 28 6 7 17 32 22
55 11 44 28 52 33 17 7 -44 17 -17 15 40 -2 47 0 60 12 60 14 0 20 20 17 60
-1 31 73 129 109 143 9 3 6 8 -11 15 -15 7 -19 11 -9 11 9 1 23 17 32 36 10
19 24 51 34 70 9 19 20 35 25 35 4 0 8 6 8 13 0 7 11 21 25 31 14 10 25 23 25
28 0 5 9 18 20 30 10 12 17 24 15 28 -2 4 7 17 20 30 13 13 22 27 19 31 -2 4
9 15 26 24 16 8 30 22 30 29 0 7 7 19 16 26 42 35 151 197 146 218 -2 6 2 12
9 12 6 0 9 6 6 14 -3 8 -3 16 0 19 3 3 6 99 7 214 2 114 4 238 4 274 l2 66 45
6 c51 7 95 -5 95 -27 0 -8 8 -20 18 -25 9 -6 12 -11 5 -11 -7 0 -9 -11 -5 -32
13 -67 5 -213 -15 -272 -7 -21 -15 -57 -18 -79 -3 -22 -9 -45 -14 -51 -4 -6
-11 -35 -14 -65 -4 -30 -10 -57 -14 -60 -12 -9 -33 -49 -33 -63 0 -6 7 -20 16
-30 16 -16 16 -18 0 -24 -9 -3 -16 -14 -16 -23 0 -10 -3 -21 -7 -25 -5 -4 -9
-22 -11 -39 -1 -18 -5 -54 -8 -82 -11 -97 -10 -129 6 -132 8 -2 23 11 32 28
13 22 24 30 40 27 20 -3 23 -9 23 -51 0 -26 4 -47 9 -47 4 0 6 -7 2 -15 -3 -9
0 -15 9 -15 8 0 14 -6 13 -12 -4 -16 51 -23 65 -9 14 14 37 83 31 92 -5 9 43
59 56 59 6 0 15 9 22 20 7 11 23 20 35 20 13 0 23 5 23 11 0 6 7 9 15 5 10 -3
17 3 21 20 4 14 4 28 0 31 -9 10 59 42 95 44 62 5 89 0 89 -16 0 -9 9 -15 24
-15 14 0 27 -4 30 -9 7 -11 64 -22 130 -26 27 -2 52 -8 56 -14 4 -7 20 -15 36
-19 16 -5 33 -18 39 -30 5 -12 14 -21 20 -21 39 5 63 -3 68 -21 4 -14 14 -20
34 -21 15 0 22 -3 14 -6 -10 -4 -3 -15 24 -39 25 -21 43 -30 50 -24 7 5 23 -2
44 -21 19 -16 42 -29 52 -29 11 0 19 -7 19 -15 0 -21 50 -40 71 -27 14 9 16 6
13 -19 -3 -28 -2 -30 19 -22 38 13 91 6 109 -16 9 -12 27 -21 40 -21 13 0 29
-5 35 -11 6 -6 19 -12 29 -13 11 -1 23 -12 29 -24 10 -22 35 -31 35 -12 0 6 5
10 11 10 6 0 9 -7 6 -14 -4 -10 -1 -13 9 -9 8 3 14 -1 14 -10 0 -9 13 -18 31
-22 21 -5 27 -10 19 -15 -7 -4 -9 -13 -5 -20 6 -9 10 -9 17 1 7 10 8 8 5 -8
-3 -15 0 -23 8 -23 8 0 22 -11 32 -24 10 -13 33 -31 51 -40 18 -9 32 -23 32
-31 0 -8 9 -19 20 -25 11 -6 20 -15 20 -21 0 -6 -4 -7 -10 -4 -6 3 -7 -1 -4
-9 3 -9 10 -16 14 -16 5 0 11 -8 15 -19 3 -10 15 -29 26 -42 14 -16 18 -31 14
-51 -7 -28 10 -63 30 -63 23 0 65 -44 65 -67 0 -14 9 -33 19 -42 18 -17 19
-16 25 2 9 27 36 37 36 13 0 -10 -3 -21 -7 -24 -13 -14 -14 -77 -1 -78 7 -1
-8 -5 -35 -8 -26 -4 -82 -4 -125 0 -42 3 -70 7 -62 8 13 1 13 2 0 11 -10 7
-18 6 -25 -3 -7 -9 -38 -13 -96 -14 -81 0 -86 1 -81 20 3 14 1 18 -9 15 -20
-7 -25 -58 -5 -58 8 0 20 -9 26 -20 8 -15 21 -20 58 -21 35 0 42 -3 27 -9 -17
-7 -17 -9 -2 -9 9 -1 17 -5 17 -11 0 -5 4 -10 9 -10 5 0 57 -27 115 -60 58
-33 110 -60 114 -60 5 0 21 -13 37 -30 16 -17 33 -30 38 -30 6 0 15 -7 22 -16
6 -10 25 -18 40 -20 16 -2 33 -10 37 -19 5 -8 22 -22 38 -30 20 -10 30 -23 30
-38 0 -15 13 -30 40 -47 22 -14 40 -30 40 -37 0 -6 6 -14 13 -17 10 -5 10 -7
0 -12 -18 -8 -16 -34 2 -34 12 0 13 -4 5 -19 -8 -16 -6 -21 9 -26 11 -3 21
-19 25 -38 5 -25 9 -29 16 -17 8 12 10 9 10 -12 0 -17 5 -28 13 -28 20 0 22
-94 3 -113 -11 -11 -14 -36 -13 -96 1 -44 6 -81 11 -81 20 0 34 -34 23 -57 -8
-17 -7 -27 1 -35 7 -7 12 -19 12 -28 0 -9 9 -33 20 -55 12 -24 17 -48 13 -63
-4 -18 -2 -23 8 -20 8 3 13 13 13 22 -1 10 6 16 21 16 25 0 35 17 35 56 0 14
4 34 10 44 16 30 34 411 22 469 -5 23 -6 23 -18 6 -13 -18 -14 -17 -14 8 0 15
-4 27 -9 27 -11 0 -31 55 -31 86 0 30 17 31 23 2 4 -21 4 -21 6 3 1 23 5 25
34 23 17 -2 24 -1 15 2 -27 8 -22 34 7 34 31 0 76 -20 69 -31 -3 -5 13 -9 35
-9 46 0 91 -32 94 -67 0 -12 5 -19 9 -17 4 3 8 -2 8 -11 0 -9 9 -29 19 -44 14
-20 19 -42 18 -84 -1 -33 4 -62 11 -69 8 -8 12 -59 12 -165 0 -146 1 -153 20
-153 11 0 20 -4 20 -10 0 -5 -10 -10 -22 -10 -14 0 -18 -3 -12 -8 6 -4 14 -28
18 -55 4 -28 16 -55 28 -66 11 -11 17 -24 13 -30 -3 -6 -1 -11 4 -11 6 0 11
-7 11 -15 0 -9 6 -26 14 -38 13 -20 27 -104 29 -167 1 -65 -17 -218 -30 -242
-12 -24 -11 -31 2 -52 11 -16 14 -33 8 -52 -4 -16 -6 -34 -5 -40 1 -7 -8 -15
-20 -19 -19 -6 -20 -8 -5 -12 23 -6 12 -50 -20 -80 -12 -12 -23 -31 -23 -42 0
-15 -5 -19 -17 -14 -14 5 -16 3 -6 -7 9 -10 9 -16 -2 -26 -7 -8 -18 -14 -24
-14 -19 0 -81 -42 -75 -51 3 -5 1 -9 -4 -9 -6 0 -12 -10 -16 -23 -3 -12 -14
-32 -26 -44 -11 -12 -20 -26 -20 -30 -1 -4 -15 -17 -33 -28 -18 -11 -36 -30
-42 -42 -6 -14 -25 -26 -55 -33 -25 -7 -62 -21 -82 -32 -21 -10 -42 -17 -47
-14 -5 3 -14 -1 -21 -9 -18 -21 -31 -19 -64 11 -26 25 -29 25 -44 10 -14 -13
-14 -18 -4 -25 11 -7 10 -18 -3 -65 -9 -31 -15 -62 -13 -68 3 -7 -1 -24 -8
-37 -7 -14 -10 -29 -7 -34 6 -10 4 -423 -2 -487 -2 -19 -6 -77 -10 -129 -3
-51 -10 -101 -15 -111 -7 -13 -6 -20 3 -23 9 -3 7 -9 -5 -24 -14 -15 -15 -22
-6 -31 9 -9 8 -12 -5 -12 -12 0 -17 -8 -17 -25 0 -31 -27 -75 -46 -75 -7 0
-16 -4 -19 -10 -4 -7 335 -10 1009 -10 l1016 0 0 4500 0 4500 -4500 0 -4500 0
0 -3895z m3778 3614 c-2 -6 -7 -10 -11 -10 -4 1 -25 1 -47 1 -22 0 -40 5 -40
10 0 6 23 10 51 10 32 0 49 -4 47 -11z m721 -25 c2 -2 5 -17 7 -33 3 -28 2
-29 -26 -21 -16 5 -34 11 -40 15 -11 7 -14 38 -4 48 6 6 53 -1 63 -9z m-951
-12 c4 -13 -26 -16 -55 -5 -16 6 -15 8 7 14 31 9 43 6 48 -9z m-158 -16 c0 -7
-9 -16 -20 -19 -15 -4 -20 0 -20 14 0 12 7 19 20 19 11 0 20 -6 20 -14z m865
-46 c32 -12 57 -67 61 -134 1 -29 -1 -44 -6 -36 -4 7 -15 10 -24 7 -19 -8 -36
20 -36 60 0 46 -21 68 -56 58 -36 -10 -67 -7 -76 8 -22 35 74 61 137 37z m233
-36 c28 -8 31 -49 3 -57 -24 -6 -56 26 -48 48 7 17 12 18 45 9z m-1060 -41
c87 -5 112 -16 112 -48 0 -9 6 -15 13 -12 6 2 12 10 12 18 0 8 8 13 18 11 12
-2 15 2 11 15 -5 14 -4 15 4 4 7 -9 32 -13 83 -13 47 1 76 -3 81 -11 6 -9 8
-9 8 1 0 8 22 12 74 12 l74 0 38 -42 c20 -24 34 -38 31 -32 -6 10 52 34 82 34
16 0 14 -35 -4 -50 -17 -14 -9 -34 11 -26 7 3 29 -1 49 -10 21 -8 35 -10 35
-4 0 5 4 10 9 10 5 0 7 -9 4 -20 -4 -14 0 -20 12 -20 12 0 16 6 12 19 -7 27
31 36 52 12 9 -9 24 -20 34 -24 15 -6 23 -36 18 -74 -1 -7 3 -13 9 -13 5 0 10
4 10 10 0 5 7 7 15 4 8 -4 15 -1 15 5 0 7 -7 14 -15 17 -8 4 -15 13 -15 21 0
8 5 11 10 8 6 -3 10 -2 10 3 0 5 16 17 35 26 64 31 197 1 181 -41 -3 -7 -2
-14 2 -17 4 -2 9 7 10 21 3 34 4 35 49 42 37 6 38 8 41 51 6 77 39 87 80 23
27 -42 27 -50 3 -58 -20 -6 -20 -17 -8 -133 1 -13 13 -32 27 -42 30 -23 40
-25 40 -6 0 8 8 24 19 37 l18 23 8 -40 c5 -21 10 -46 13 -54 2 -8 4 -39 4 -67
-1 -29 3 -53 7 -53 7 0 34 -51 37 -70 0 -3 6 -25 13 -50 17 -57 22 -128 10
-136 -17 -10 -9 -31 17 -42 32 -15 56 -72 52 -125 -2 -34 -7 -42 -23 -42 -11
-1 -26 -4 -32 -8 -15 -10 -69 -19 -102 -18 -31 1 -45 -19 -23 -35 14 -10 14
-14 3 -28 -7 -9 -10 -16 -5 -16 5 0 2 -4 -6 -10 -11 -7 -12 -13 -2 -32 20 -39
32 -112 20 -119 -7 -4 -6 -9 2 -14 16 -10 27 3 43 49 12 36 14 37 30 22 21
-21 22 -55 2 -83 -26 -37 4 -40 36 -4 38 44 51 32 47 -38 -2 -39 -8 -61 -22
-73 -23 -22 -33 -16 -44 25 -6 20 -14 31 -23 28 -8 -2 -25 -3 -38 -2 -23 1
-91 -34 -91 -47 1 -4 9 -25 20 -47 21 -45 18 -59 -12 -49 -14 4 -18 2 -14 -5
4 -6 14 -11 22 -11 8 0 14 -4 14 -8 0 -14 -23 -32 -42 -32 -30 0 -20 -28 12
-35 17 -4 30 -11 30 -16 0 -5 -11 -3 -25 3 -29 13 -47 2 -25 -15 25 -20 76
-90 89 -124 7 -18 16 -31 20 -29 3 2 13 -6 23 -18 16 -22 15 -23 -19 -41 -34
-19 -62 -63 -46 -74 4 -3 8 -25 8 -49 0 -41 -1 -42 -33 -42 -24 0 -35 -5 -41
-22 -10 -28 8 -66 37 -73 15 -4 22 -13 22 -30 0 -38 -2 -40 -45 -37 -50 4 -74
24 -67 57 3 18 0 25 -11 25 -29 0 -47 -12 -47 -32 0 -18 -5 -20 -34 -15 -29 5
-34 3 -29 -10 5 -12 2 -15 -10 -10 -9 3 -19 2 -22 -3 -4 -6 -2 -10 4 -10 6 0
7 -7 4 -17 -4 -10 -2 -14 4 -10 6 4 14 0 17 -9 3 -8 11 -12 18 -8 8 5 9 0 5
-16 -4 -16 2 -29 21 -47 25 -23 26 -25 8 -35 -13 -7 -15 -13 -7 -17 9 -6 9
-15 1 -35 -5 -15 -7 -38 -4 -50 3 -12 6 -54 8 -93 1 -39 7 -77 13 -85 12 -15
27 -68 24 -82 -1 -5 4 -13 11 -18 9 -7 9 -11 2 -14 -8 -3 -8 -19 -1 -54 12
-60 24 -66 19 -10 -3 34 -1 40 14 40 11 0 15 3 9 8 -12 8 -12 35 -1 69 4 12 3
24 -3 27 -5 3 -8 31 -7 61 4 87 50 106 93 37 26 -43 55 -62 94 -62 44 0 57
-14 64 -66 2 -21 10 -67 16 -101 6 -34 8 -70 4 -80 -5 -10 -9 -21 -9 -25 -1
-4 -8 -16 -17 -26 -8 -10 -13 -24 -11 -31 3 -9 0 -11 -8 -6 -8 5 -11 3 -8 -6
5 -15 -14 -39 -31 -39 -6 0 -11 -6 -11 -13 0 -14 -94 -16 -141 -3 -23 7 -26
12 -25 49 1 23 -4 48 -11 54 -6 7 -9 21 -6 32 3 10 0 22 -6 25 -6 4 -11 -1
-12 -11 -3 -56 -9 -87 -23 -108 -11 -17 -12 -26 -5 -31 8 -4 7 -9 -2 -15 -12
-8 -12 -10 0 -18 7 -5 9 -11 4 -14 -5 -3 -10 -46 -10 -95 -1 -86 -15 -147 -58
-246 -9 -21 -14 -49 -11 -62 4 -13 2 -24 -3 -24 -5 0 -14 -23 -21 -52 -6 -29
-18 -60 -27 -70 -13 -14 -13 -20 -3 -33 10 -12 10 -15 -4 -15 -9 0 -16 -7 -16
-15 0 -8 -4 -15 -10 -15 -5 0 -10 -4 -10 -10 0 -17 -63 -100 -76 -100 -7 0
-16 -9 -19 -20 -3 -11 -13 -20 -21 -20 -8 0 -14 -6 -14 -14 0 -16 -55 -40 -83
-37 -15 2 -17 -2 -13 -17 5 -14 1 -21 -14 -25 -11 -3 -20 -12 -20 -21 0 -9 -7
-16 -15 -16 -18 0 -18 -2 -1 -45 14 -33 14 -34 -12 -37 -19 -2 -28 -10 -30
-24 -2 -12 -13 -24 -25 -28 -20 -5 -20 -6 -2 -26 15 -17 16 -20 2 -20 -8 0
-17 4 -19 9 -1 4 -13 11 -25 15 -19 6 -22 4 -17 -9 4 -10 -1 -22 -15 -31 -11
-8 -21 -22 -21 -30 0 -8 -9 -14 -19 -14 -23 0 -30 -45 -20 -117 3 -23 3 -42 0
-41 -26 3 -40 -6 -45 -27 -4 -14 -11 -25 -16 -25 -6 0 -10 -7 -10 -15 0 -8 -9
-15 -20 -15 -11 0 -20 -7 -20 -15 0 -8 -4 -15 -10 -15 -5 0 -12 -11 -16 -25
-3 -14 -10 -25 -15 -25 -5 0 -9 -6 -9 -12 0 -7 -36 -31 -80 -52 -44 -21 -80
-45 -80 -53 0 -10 -6 -12 -21 -8 -12 4 -31 2 -44 -5 -18 -9 -32 -9 -71 5 -27
9 -57 23 -66 32 -12 11 -27 14 -50 9 -20 -3 -28 -2 -20 3 9 5 0 12 -31 20 -29
8 -53 24 -66 42 -13 17 -27 27 -33 23 -7 -5 -9 -1 -5 9 4 10 1 17 -6 18 -60 6
-82 11 -88 20 -4 8 -14 4 -28 -10 -11 -11 -28 -21 -36 -21 -8 0 -15 -4 -15
-10 0 -5 -13 -10 -30 -10 -20 0 -30 5 -30 15 0 9 -7 15 -16 13 -10 -2 -18 5
-20 17 -1 11 -11 25 -21 33 -14 10 -19 30 -21 100 -4 85 -3 88 21 99 14 7 36
9 48 6 33 -8 89 -63 89 -87 0 -27 9 -38 45 -56 17 -8 33 -19 37 -25 5 -6 8 -5
8 3 0 6 8 12 19 12 10 0 24 7 31 15 7 8 18 15 24 15 6 1 20 13 31 27 11 14 27
33 35 42 21 22 60 98 60 115 0 8 -12 18 -27 24 -36 14 -211 9 -241 -7 -12 -6
-22 -7 -22 -2 0 10 -74 27 -102 23 -10 -1 -18 3 -18 8 0 6 -9 10 -20 10 -12 0
-20 7 -20 18 0 9 -9 23 -20 30 -11 7 -20 19 -20 27 0 12 -9 15 -35 12 -19 -3
-35 -1 -35 4 0 4 -3 15 -7 25 -5 14 -2 16 16 11 17 -4 24 0 31 18 10 26 47 55
70 55 9 0 27 11 40 25 12 13 26 22 30 20 4 -2 16 2 26 10 15 11 16 15 4 16 -8
1 -19 1 -24 0 -5 -1 -101 -4 -212 -7 -198 -5 -205 -4 -244 18 -22 13 -42 30
-45 40 -3 9 -12 19 -20 22 -8 3 -15 16 -15 28 -1 26 -22 58 -38 58 -6 0 -18
13 -27 29 -8 16 -28 39 -45 51 -16 12 -30 28 -30 36 0 8 -4 14 -9 14 -5 0 -11
9 -14 20 -3 11 -13 20 -22 20 -14 0 -15 3 -5 15 9 10 9 15 1 15 -6 0 -11 9
-11 19 0 11 -13 31 -30 44 -16 14 -30 35 -30 46 0 11 -4 22 -9 26 -5 3 -17 30
-26 60 -8 30 -20 55 -26 55 -6 0 -8 4 -5 9 4 5 -5 18 -20 28 -14 10 -26 25
-28 33 -11 62 -31 130 -37 130 -5 0 -9 17 -9 38 0 139 -4 212 -11 212 -5 0 -9
8 -9 18 0 14 2 15 10 2 7 -11 10 -7 10 18 0 19 6 35 14 38 11 4 13 16 9 41 -6
35 -6 36 25 31 18 -2 32 -1 32 4 0 4 5 8 10 8 6 0 10 -7 10 -15 0 -8 7 -15 15
-15 8 0 15 -4 15 -10 0 -5 7 -10 15 -10 8 0 15 -5 15 -11 0 -6 8 -8 19 -4 13
4 20 0 24 -15 7 -26 31 -26 56 1 16 17 19 32 16 82 -2 33 -9 65 -14 70 -29 29
5 132 45 140 36 7 87 -33 77 -60 -3 -7 0 -14 6 -14 6 -1 15 -2 20 -3 6 0 15
-6 22 -13 23 -23 99 16 99 51 0 6 -4 5 -9 -2 -6 -11 -10 -10 -15 4 -4 10 -4
15 0 11 4 -3 21 1 38 11 49 27 56 34 49 46 -4 6 -9 21 -11 33 -2 21 -1 22 25
10 15 -6 38 -22 51 -34 13 -12 33 -23 45 -25 12 -2 22 -10 22 -18 0 -8 2 -17
5 -20 13 -13 30 -52 30 -68 0 -25 45 -66 64 -59 9 4 17 17 18 29 4 58 2 98 -4
98 -5 0 -8 7 -8 15 0 8 -6 15 -14 15 -9 0 -12 8 -8 25 3 17 0 25 -8 23 -7 -2
-20 11 -30 27 -13 23 -24 30 -44 28 -14 -1 -26 2 -26 8 0 5 6 9 13 10 10 0 10
2 0 6 -7 2 -13 22 -13 43 0 33 -4 40 -35 54 -19 9 -35 21 -35 26 0 6 -9 10
-20 10 -11 0 -20 5 -20 11 0 5 -4 7 -10 4 -5 -3 -10 -2 -10 3 0 6 -24 12 -52
15 -55 5 -133 23 -152 35 -13 8 -16 8 -158 15 -59 3 -110 2 -113 -3 -3 -4 -14
-6 -25 -3 -13 3 -20 0 -20 -8 0 -11 -83 -59 -103 -59 -8 0 5 43 21 68 12 19
63 54 82 57 15 2 57 31 68 47 8 10 51 37 97 59 47 22 87 44 90 48 7 12 -22 34
-64 47 -20 7 -28 12 -18 13 9 1 17 8 17 16 0 8 6 15 14 15 7 0 19 7 26 15 10
12 10 15 -4 15 -9 0 -16 -4 -16 -10 0 -5 -4 -10 -10 -10 -5 0 -10 21 -10 46 0
36 3 45 15 41 8 -4 17 -2 20 4 4 5 -1 12 -9 15 -14 5 -14 8 -1 21 19 19 20 73
1 73 -18 0 -26 31 -26 107 0 40 4 63 13 66 7 3 5 6 -5 6 -22 1 -12 31 11 31
13 1 13 3 -4 16 -11 8 -19 24 -17 35 5 28 33 59 54 59 10 0 18 4 18 10 0 5 -6
7 -13 4 -17 -6 -67 33 -67 51 0 8 14 30 31 49 l31 35 24 -24 c13 -13 29 -36
34 -51 9 -22 7 -29 -12 -45 -19 -17 -20 -21 -6 -32 22 -17 27 -40 13 -57 -20
-24 -27 -57 -13 -57 7 0 22 -3 34 -6 13 -5 27 0 42 13 l21 20 -20 35 c-21 35
-20 85 1 85 15 0 12 21 -6 41 -15 16 -15 23 -3 51 7 18 19 39 26 46 29 30 12
37 -72 32 -22 -1 -47 -8 -56 -16 -9 -8 -18 -11 -22 -8 -10 11 32 57 64 71 24
10 29 17 24 33 -7 22 5 26 23 8 9 -9 12 -7 12 10 0 11 -8 26 -17 31 -17 10
-17 10 0 11 9 0 17 5 17 10 0 6 -7 10 -15 10 -9 0 -15 6 -14 13 1 6 -1 19 -4
27 -4 8 -16 40 -26 70 -18 51 -18 55 -2 70 9 8 29 32 44 53 23 30 34 37 63 37
26 0 34 4 34 18 1 15 2 15 13 1 7 -9 18 -14 25 -11 7 2 20 -4 27 -14 13 -18
14 -18 15 -1 0 9 -4 17 -10 17 -5 0 -10 18 -10 40 0 22 4 40 9 40 5 0 11 10
14 23 4 22 4 22 15 -3 6 -14 11 -19 11 -11 1 7 12 26 26 43 14 16 25 37 25 47
0 10 12 23 26 29 18 9 24 17 19 31 -4 12 0 21 12 25 10 4 19 2 21 -3 5 -16 29
-13 36 4 3 8 12 15 21 15 8 0 24 8 35 18 11 9 26 17 33 17 7 0 11 8 9 17 -2
10 5 18 19 20 12 2 27 12 33 23 17 31 39 45 64 41 12 -2 22 0 22 4 0 3 29 12
65 19 36 7 65 17 65 22 0 5 -5 9 -12 9 -6 0 -9 3 -6 6 3 3 24 -4 47 -15 22
-12 43 -21 46 -21 3 0 5 15 5 34 0 28 4 35 23 38 12 2 26 2 30 0 5 -2 48 -7
95 -9z m-665 -153 c-2 -43 -36 -79 -57 -60 -23 18 -19 47 9 76 32 32 50 26 48
-16z m-123 10 c0 -20 -37 -70 -52 -70 -16 0 -8 63 10 76 25 19 42 17 42 -6z
m230 -54 c0 -3 -4 -8 -10 -11 -5 -3 -10 -1 -10 4 0 6 5 11 10 11 6 0 10 -2 10
-4z m-278 -51 c0 -5 -5 -11 -11 -13 -6 -2 -11 4 -11 13 0 9 5 15 11 13 6 -2
11 -8 11 -13z m2288 -1166 c0 -5 -9 -9 -20 -9 -13 0 -18 5 -14 14 6 15 34 11
34 -5z m-2925 1 c3 -6 -4 -10 -17 -10 -18 0 -20 2 -8 10 19 12 18 12 25 0z
m355 -213 c0 -18 -2 -19 -10 -7 -13 20 -13 43 0 35 6 -3 10 -16 10 -28z m2330
-486 c0 -15 10 -19 60 -24 61 -7 115 -31 104 -48 -3 -5 -1 -9 4 -9 20 0 20
-28 1 -49 l-20 -22 -38 30 c-20 16 -53 37 -74 47 -20 10 -37 25 -37 33 0 9 -9
22 -20 29 -11 7 -20 17 -20 22 0 6 9 10 20 10 13 0 20 -7 20 -19z m-2000 -131
c0 -23 -4 -24 -31 -10 -27 15 -24 30 6 30 18 0 25 -5 25 -20z m307 -2002 c-2
-13 -4 -3 -4 22 0 25 2 35 4 23 2 -13 2 -33 0 -45z m3664 -245 c13 -16 12 -17
-3 -4 -10 7 -18 15 -18 17 0 8 8 3 21 -13z m-2391 -183 c0 -5 -2 -10 -4 -10
-3 0 -8 5 -11 10 -3 6 -1 10 4 10 6 0 11 -4 11 -10z m2760 -264 c0 -3 -4 -8
-10 -11 -5 -3 -10 -1 -10 4 0 6 5 11 10 11 6 0 10 -2 10 -4z m-27 -31 c1 -5
-6 -11 -15 -13 -11 -2 -18 3 -18 13 0 17 30 18 33 0z m156 -35 c6 0 11 -4 11
-10 0 -5 11 -10 25 -10 26 0 34 -15 13 -23 -13 -5 37 -11 57 -7 6 1 4 -4 -2
-11 -7 -7 -13 -27 -13 -45 0 -18 -3 -34 -7 -37 -5 -2 -1 -2 7 1 47 14 50 14
50 -2 0 -19 16 -21 23 -3 3 6 6 -1 6 -16 1 -23 5 -28 24 -25 16 2 21 -1 19
-14 -2 -12 4 -18 15 -18 14 -1 12 -6 -12 -25 -36 -30 -45 -31 -45 -5 0 11 -7
20 -15 20 -8 0 -25 11 -39 25 -14 14 -29 25 -33 25 -5 0 -14 9 -21 20 -7 11
-21 20 -32 20 -15 0 -20 7 -20 25 0 14 -5 25 -11 25 -5 0 -7 5 -3 11 5 8 9 8
14 -1 8 -13 30 -6 30 9 0 12 -37 20 -47 11 -4 -5 -19 -6 -33 -3 -27 5 -34 33
-16 62 6 10 5 16 -2 19 -7 2 -12 8 -12 14 0 5 13 0 29 -11 16 -12 34 -21 40
-21z m-122 14 c-3 -3 -12 -4 -19 -1 -8 3 -5 6 6 6 11 1 17 -2 13 -5z m393
-289 c-7 -9 -15 -13 -19 -10 -3 3 1 10 9 15 21 14 24 12 10 -5z m-3300 -765
c0 -5 -5 -10 -11 -10 -5 0 -7 5 -4 10 3 6 8 10 11 10 2 0 4 -4 4 -10z m-600
-561 c0 -5 -4 -9 -10 -9 -5 0 -10 7 -10 16 0 8 5 12 10 9 6 -3 10 -10 10 -16z
m117 9 c3 7 21 12 44 12 l39 0 0 -45 c0 -43 -1 -45 -27 -44 -31 1 -86 16 -64
18 30 2 -12 31 -45 31 -26 0 -34 4 -34 19 0 17 4 17 42 7 32 -9 42 -8 45 2z"/>
<path d="M3412 8500 c-10 -16 -9 -21 7 -30 11 -5 22 -10 25 -10 10 0 6 24 -7
42 -12 15 -14 15 -25 -2z"/>
<path d="M3600 8500 c0 -5 5 -10 10 -10 6 0 10 5 10 10 0 6 -4 10 -10 10 -5 0
-10 -4 -10 -10z"/>
<path d="M3898 8503 c7 -3 16 -2 19 1 4 3 -2 6 -13 5 -11 0 -14 -3 -6 -6z"/>
<path d="M3288 8443 c7 -3 16 -2 19 1 4 3 -2 6 -13 5 -11 0 -14 -3 -6 -6z"/>
<path d="M4240 8320 c0 -22 -2 -40 -4 -40 -2 0 -11 -3 -20 -6 -10 -4 -16 -1
-16 9 0 8 -9 17 -20 20 -27 7 -25 -5 4 -32 19 -18 23 -33 25 -88 1 -37 4 -69
6 -72 3 -2 -2 -12 -10 -21 -22 -25 -1 -70 32 -70 20 0 22 4 17 25 -3 14 -1 31
5 39 7 8 9 25 5 40 -4 17 0 35 11 52 19 30 13 92 -11 101 -10 4 -12 15 -8 44
4 26 3 39 -5 39 -6 0 -11 -17 -11 -40z"/>
<path d="M4545 8279 c-10 -30 8 -44 29 -24 9 9 16 23 16 31 0 22 -38 17 -45
-7z"/>
<path d="M4059 8262 l-22 -19 32 -34 c37 -39 51 -30 51 34 0 30 -4 37 -19 37
-10 0 -29 -8 -42 -18z"/>
<path d="M4361 8266 c-9 -10 -6 -17 13 -30 34 -22 49 -20 62 8 10 21 9 25 -10
30 -34 9 -53 7 -65 -8z"/>
<path d="M4675 8240 c3 -5 11 -10 16 -10 6 0 7 5 4 10 -3 6 -11 10 -16 10 -6
0 -7 -4 -4 -10z"/>
<path d="M4536 8195 c-9 -35 0 -46 32 -41 15 2 29 5 32 5 3 1 6 10 6 21 0 16
-37 40 -61 40 -2 0 -6 -11 -9 -25z"/>
<path d="M3397 8153 c-13 -12 -7 -54 8 -59 18 -7 19 -27 3 -54 -10 -15 -9 -22
5 -38 21 -23 21 -36 2 -52 -8 -7 -15 -19 -15 -27 0 -9 6 -13 15 -9 8 3 15 1
15 -4 0 -18 30 -10 31 8 5 58 3 122 -3 122 -11 0 3 37 22 58 16 17 17 21 5 26
-8 3 -15 12 -15 21 0 10 -10 15 -33 15 -19 0 -37 -3 -40 -7z"/>
<path d="M4691 8126 c-14 -16 -6 -40 10 -31 5 4 9 1 9 -5 0 -6 5 -8 10 -5 13
8 13 18 -3 39 -12 16 -14 16 -26 2z"/>
<path d="M4385 8110 c-3 -5 -1 -10 4 -10 6 0 11 5 11 10 0 6 -2 10 -4 10 -3 0
-8 -4 -11 -10z"/>
<path d="M4370 8070 c0 -5 5 -10 11 -10 5 0 7 5 4 10 -3 6 -8 10 -11 10 -2 0
-4 -4 -4 -10z"/>
<path d="M4708 8053 c-11 -12 -14 -23 -8 -33 13 -21 33 1 28 30 -3 22 -3 22
-20 3z"/>
<path d="M3235 8039 c-8 -23 7 -39 38 -39 20 0 23 30 5 48 -18 18 -36 14 -43
-9z"/>
<path d="M4830 7980 c0 -57 13 -65 29 -19 7 21 7 37 0 50 -17 33 -29 21 -29
-31z"/>
<path d="M3579 7994 c-11 -14 -10 -18 6 -30 36 -27 65 -11 45 26 -13 24 -33
26 -51 4z"/>
<path d="M2487 7953 c-4 -3 -7 -15 -7 -25 0 -13 7 -18 25 -18 29 0 36 34 9 44
-19 7 -19 7 -27 -1z"/>
<path d="M4560 7919 c0 -5 5 -7 10 -4 6 3 10 8 10 11 0 2 -4 4 -10 4 -5 0 -10
-5 -10 -11z"/>
<path d="M4876 7722 c-3 -3 -6 -14 -6 -24 0 -24 43 -21 48 3 3 16 -31 33 -42
21z"/>
<path d="M2591 7479 c-18 -17 -31 -32 -29 -34 32 -27 68 -22 88 14 7 14 5 23
-9 35 -17 15 -20 14 -50 -15z"/>
<path d="M3433 7462 c-14 -9 2 -52 20 -52 20 0 25 9 20 30 -6 21 -25 31 -40
22z"/>
<path d="M4304 7274 c5 -22 3 -41 -5 -50 -9 -12 -9 -20 1 -39 20 -37 30 -30
26 18 -2 23 0 47 5 53 12 15 -1 54 -18 54 -12 0 -14 -8 -9 -36z"/>
<path d="M2330 7200 c0 -29 4 -40 15 -40 11 0 15 11 15 40 0 29 -4 40 -15 40
-11 0 -15 -11 -15 -40z"/>
<path d="M4420 7150 c0 -5 5 -10 11 -10 5 0 7 5 4 10 -3 6 -8 10 -11 10 -2 0
-4 -4 -4 -10z"/>
<path d="M4284 7103 c4 -26 35 -29 33 -4 -1 13 -8 21 -18 21 -11 0 -16 -7 -15
-17z"/>
<path d="M2370 6990 c0 -5 5 -10 11 -10 5 0 7 5 4 10 -3 6 -8 10 -11 10 -2 0
-4 -4 -4 -10z"/>
<path d="M3400 6934 c0 -24 19 -54 35 -54 8 0 20 10 26 22 10 18 8 24 -7 35
-24 18 -54 16 -54 -3z"/>
<path d="M4735 6905 c-3 -8 -7 -22 -10 -30 -2 -8 1 -17 7 -21 7 -4 6 -9 -3
-15 -11 -7 -11 -9 -1 -9 14 0 17 8 26 58 5 32 -10 46 -19 17z"/>
<path d="M3423 6865 c4 -5 1 -15 -6 -24 -8 -9 -17 -24 -20 -33 -6 -16 0 -18
41 -18 40 1 44 3 30 13 -9 7 -18 24 -20 37 -1 13 -10 26 -18 28 -8 3 -12 1 -7
-3z"/>
<path d="M3231 6841 c-12 -8 -9 -11 12 -17 32 -7 49 3 27 16 -19 12 -21 12
-39 1z"/>
<path d="M3584 6806 c-16 -7 -36 -11 -44 -9 -9 3 -7 -1 4 -8 21 -13 95 -14
108 -1 17 17 -36 31 -68 18z"/>
<path d="M3505 6790 c-3 -5 -1 -10 4 -10 6 0 11 5 11 10 0 6 -2 10 -4 10 -3 0
-8 -4 -11 -10z"/>
<path d="M4780 6720 c0 -5 5 -10 10 -10 6 0 10 5 10 10 0 6 -4 10 -10 10 -5 0
-10 -4 -10 -10z"/>
<path d="M3614 6598 c-60 -16 -126 -33 -148 -37 -21 -5 -41 -13 -45 -18 -3 -5
-14 -12 -23 -16 -19 -7 -22 -24 -12 -51 5 -12 21 -16 70 -16 38 0 64 -4 64
-11 0 -6 5 -7 13 -2 14 9 17 10 86 23 29 6 83 25 120 43 60 28 75 31 158 30
117 -1 186 -11 177 -25 -4 -7 -2 -8 5 -4 6 4 19 2 27 -5 19 -16 64 -20 64 -6
0 7 -25 23 -56 36 -30 13 -79 38 -108 56 -51 31 -56 32 -167 32 -95 0 -134 -5
-225 -29z"/>
<path d="M3573 6400 c-49 -23 -36 -62 26 -81 21 -6 57 -29 80 -51 61 -57 106
-71 135 -43 32 33 101 40 132 14 16 -13 76 -18 97 -8 10 6 17 21 17 38 0 39
-41 66 -97 63 -31 -1 -43 2 -43 12 0 8 -13 17 -30 21 -16 4 -32 11 -35 16 -4
5 -19 9 -34 9 -16 0 -45 7 -66 16 -45 18 -136 16 -182 -6z"/>
<path d="M2760 5274 c-9 -22 -7 -30 15 -50 14 -13 25 -28 25 -34 0 -5 9 -10
20 -10 11 0 23 -7 27 -16 3 -8 12 -13 19 -10 8 3 14 -1 14 -9 0 -11 11 -15 40
-15 22 0 40 -4 40 -10 0 -13 22 -13 57 1 16 6 22 13 16 16 -7 3 -13 11 -13 19
0 8 -7 17 -15 20 -8 4 -12 11 -8 17 3 6 1 7 -6 3 -6 -4 -14 0 -17 8 -3 9 -15
16 -25 16 -11 0 -19 7 -19 16 0 18 -73 53 -125 59 -31 4 -37 2 -45 -21z"/>
<path d="M3746 4972 c-2 -4 -1 -14 5 -22 7 -12 9 -10 9 8 0 23 -5 28 -14 14z"/>
<path d="M4990 4191 c0 -6 4 -13 10 -16 6 -3 7 1 4 9 -7 18 -14 21 -14 7z"/>
<path d="M5040 4139 c0 -15 -4 -19 -16 -15 -14 5 -16 1 -11 -21 3 -16 9 -36
12 -45 5 -12 2 -18 -7 -18 -15 0 -38 -40 -38 -65 0 -8 -9 -15 -20 -15 -18 0
-19 -3 -9 -21 6 -13 8 -38 4 -63 -7 -41 -11 -109 -18 -261 -3 -75 -23 -155
-38 -155 -4 0 -14 -11 -23 -24 -35 -54 29 -101 116 -86 24 5 45 4 49 -1 3 -5
27 -4 57 3 38 9 52 17 52 30 0 10 6 18 13 18 28 0 115 52 120 71 3 11 15 23
26 26 28 7 26 19 -4 39 -16 10 -34 14 -53 9 -25 -5 -31 -2 -36 17 -5 14 -9 18
-13 11 -2 -7 -9 -13 -14 -13 -13 0 -11 64 3 78 9 9 9 12 -1 12 -7 0 -11 6 -8
15 4 8 2 17 -4 21 -6 3 -8 12 -5 20 3 8 1 14 -4 14 -6 0 -10 11 -10 25 0 14 5
25 10 25 13 0 13 27 -1 32 -6 2 -12 38 -13 83 -2 44 -4 97 -5 118 -1 26 -6 37
-16 37 -8 0 -15 9 -15 20 0 11 -4 20 -10 20 -5 0 -10 9 -10 21 0 16 -4 19 -22
13 -21 -6 -21 -6 -5 10 20 20 14 36 -14 36 -13 0 -19 -7 -19 -21z"/>
<path d="M5112 4140 c0 -14 2 -19 5 -12 2 6 2 18 0 25 -3 6 -5 1 -5 -13z"/>
<path d="M4371 3814 c0 -11 3 -14 6 -6 3 7 2 16 -1 19 -3 4 -6 -2 -5 -13z"/>
<path d="M4338 3783 c-10 -2 -18 -9 -18 -14 0 -13 43 -5 48 9 4 12 0 13 -30 5z"/>
<path d="M4260 3730 c-13 -8 -12 -10 3 -10 9 0 17 5 17 10 0 12 -1 12 -20 0z"/>
<path d="M4224 3693 c-17 -17 -17 -18 0 -21 25 -5 46 5 46 23 0 20 -24 19 -46
-2z"/>
<path d="M6480 3596 c0 -2 7 -7 16 -10 8 -3 12 -2 9 4 -6 10 -25 14 -25 6z"/>
<path d="M5561 3341 c-8 -5 -20 -7 -28 -4 -7 3 -13 0 -13 -7 0 -9 -3 -10 -13
-1 -9 7 -24 8 -47 1 -18 -5 -51 -10 -74 -12 -22 -1 -47 -8 -54 -15 -7 -7 -22
-13 -33 -13 -10 0 -19 -4 -19 -10 0 -5 -11 -10 -24 -10 -17 0 -43 -18 -80 -55
-30 -30 -59 -55 -63 -55 -5 0 -20 -18 -33 -40 -14 -22 -28 -40 -32 -40 -5 0
-8 -8 -8 -18 0 -10 -13 -33 -30 -52 -16 -19 -29 -41 -30 -49 0 -7 -19 -52 -42
-100 l-43 -86 0 -136 c0 -75 -3 -132 -7 -125 -5 7 -8 6 -8 -4 0 -9 5 -21 11
-27 11 -11 19 -203 9 -203 -5 0 -6 -5 -16 -131 -5 -74 -3 -95 15 -143 21 -58
28 -140 12 -150 -5 -3 -9 -36 -10 -73 0 -42 -6 -70 -13 -75 -11 -6 -10 -11 0
-28 13 -22 15 -150 2 -150 -16 0 -34 -217 -19 -225 5 -4 9 -31 9 -61 0 -50 -2
-55 -19 -49 -16 5 -19 0 -19 -35 -1 -23 -6 -47 -11 -54 -6 -7 -8 -16 -4 -19 3
-4 2 -7 -4 -7 -6 0 -13 -23 -15 -50 -3 -55 1 -59 68 -65 25 -1 37 2 42 13 3 9
14 24 24 34 26 26 28 94 2 114 -19 15 -18 32 4 36 13 3 11 7 -12 18 -41 21
-45 40 -8 40 l29 0 7 87 c3 48 10 90 14 93 4 3 8 82 9 177 1 97 6 180 12 191
6 11 13 55 15 97 3 48 10 82 18 87 10 6 8 8 -4 8 -22 0 -24 16 -3 24 17 6 20
63 6 113 -6 20 -5 35 1 41 7 7 5 19 -9 38 -16 22 -18 33 -10 63 8 28 6 44 -6
71 -27 59 -35 146 -21 243 5 39 3 47 -10 47 -9 0 -16 4 -16 10 0 5 7 7 16 3
14 -5 16 -2 10 20 -3 14 -2 28 3 31 4 3 11 35 15 71 8 83 18 104 67 138 21 16
39 33 39 38 0 5 6 9 14 9 14 0 36 49 36 81 0 12 7 19 20 19 11 0 20 5 20 10 0
6 7 10 15 10 9 0 19 8 22 18 4 9 9 19 13 22 3 3 11 21 16 40 7 26 16 36 34 38
14 2 30 8 35 12 6 5 37 10 70 11 33 1 65 5 70 9 6 5 30 12 55 17 25 5 44 15
43 21 -2 7 10 12 32 12 19 0 35 5 35 10 0 6 9 10 21 10 15 0 19 5 15 16 -3 8
-2 12 4 9 6 -3 23 3 39 14 34 25 41 26 41 7 0 -9 20 -15 61 -20 93 -9 99 -8
99 14 0 17 -7 20 -45 20 -25 0 -45 4 -45 9 0 15 -51 23 -66 10 -14 -12 -142
-8 -174 5 -8 3 -21 2 -29 -3z m-594 -1773 c-3 -8 -6 -5 -6 6 -1 11 2 17 5 13
3 -3 4 -12 1 -19z"/>
<path d="M5920 3340 c0 -5 4 -10 9 -10 6 0 13 5 16 10 3 6 -1 10 -9 10 -9 0
-16 -4 -16 -10z"/>
<path d="M6060 3330 c0 -5 -11 -10 -25 -10 -27 0 -35 -24 -10 -34 20 -7 45 3
45 19 0 8 8 11 20 8 11 -3 20 0 20 6 0 5 -7 8 -15 5 -8 -4 -15 -1 -15 5 0 6
-4 11 -10 11 -5 0 -10 -4 -10 -10z"/>
<path d="M5418 3153 c7 -3 16 -2 19 1 4 3 -2 6 -13 5 -11 0 -14 -3 -6 -6z"/>
<path d="M7553 2800 c0 -25 2 -35 4 -22 2 12 2 32 0 45 -2 12 -4 2 -4 -23z"/>
<path d="M3665 2387 c-4 -10 -5 -21 -1 -24 10 -10 18 4 13 24 -4 17 -4 17 -12
0z"/>
<path d="M3600 2146 c0 -14 5 -26 10 -26 6 0 10 9 10 19 0 11 -4 23 -10 26 -6
4 -10 -5 -10 -19z"/>
<path d="M7302 2140 c0 -14 2 -19 5 -12 2 6 2 18 0 25 -3 6 -5 1 -5 -13z"/>
<path d="M3520 2060 c0 -11 7 -20 15 -20 17 0 18 2 9 24 -9 23 -24 20 -24 -4z"/>
<path d="M4220 1911 c0 -6 5 -13 10 -16 6 -3 10 1 10 9 0 9 -4 16 -10 16 -5 0
-10 -4 -10 -9z"/>
<path d="M4255 1870 c3 -5 8 -10 11 -10 2 0 4 5 4 10 0 6 -5 10 -11 10 -5 0
-7 -4 -4 -10z"/>
<path d="M7 803 c-4 -3 -7 -32 -7 -64 0 -67 0 -66 103 -73 55 -3 57 -3 57 21
0 27 -42 68 -80 78 -31 8 -51 25 -44 36 6 10 -19 12 -29 2z"/>
</g>
</svg>
